<svg xmlns="http://www.w3.org/2000/svg" viewBox="0 0 1246 987" width="1246" height="987" fill="#000">
<path d="M 733.0 739.0 L 733.0 765.0 L 778.0 766.0 L 778.0 955.0 L 733.0 956.0 L 733.0 982.0 L 859.0 982.0 L 859.0 956.0 L 814.0 955.0 L 814.0 809.0 L 818.0 808.0 L 819.0 804.0 L 823.0 804.0 L 823.0 801.0 L 827.0 800.0 L 828.0 796.0 L 832.0 796.0 L 832.0 793.0 L 836.0 792.0 L 837.0 788.0 L 841.0 788.0 L 842.0 784.0 L 850.0 784.0 L 851.0 781.0 L 855.0 781.0 L 856.0 777.0 L 859.0 777.0 L 860.0 773.0 L 868.0 773.0 L 869.0 769.0 L 877.0 769.0 L 878.0 765.0 L 891.0 765.0 L 892.0 761.0 L 932.0 761.0 L 933.0 765.0 L 945.0 765.0 L 946.0 769.0 L 950.0 769.0 L 951.0 773.0 L 955.0 773.0 L 956.0 777.0 L 960.0 778.0 L 960.0 784.0 L 965.0 785.0 L 965.0 796.0 L 969.0 797.0 L 969.0 955.0 L 924.0 956.0 L 924.0 982.0 L 1050.0 982.0 L 1050.0 956.0 L 1005.0 955.0 L 1005.0 809.0 L 1009.0 808.0 L 1010.0 804.0 L 1014.0 804.0 L 1014.0 801.0 L 1018.0 800.0 L 1019.0 796.0 L 1023.0 796.0 L 1023.0 793.0 L 1027.0 792.0 L 1028.0 788.0 L 1032.0 788.0 L 1032.0 785.0 L 1036.0 784.0 L 1037.0 781.0 L 1045.0 781.0 L 1045.0 778.0 L 1050.0 777.0 L 1051.0 773.0 L 1059.0 773.0 L 1060.0 769.0 L 1068.0 769.0 L 1069.0 765.0 L 1086.0 765.0 L 1087.0 761.0 L 1127.0 761.0 L 1128.0 765.0 L 1141.0 765.0 L 1142.0 769.0 L 1146.0 770.0 L 1146.0 773.0 L 1150.0 773.0 L 1151.0 777.0 L 1156.0 778.0 L 1156.0 784.0 L 1160.0 785.0 L 1160.0 796.0 L 1165.0 797.0 L 1165.0 955.0 L 1115.0 956.0 L 1115.0 982.0 L 1245.0 982.0 L 1245.0 956.0 L 1200.0 955.0 L 1200.0 801.0 L 1195.0 800.0 L 1195.0 778.0 L 1191.0 777.0 L 1191.0 766.0 L 1187.0 766.0 L 1186.0 762.0 L 1182.0 761.0 L 1182.0 754.0 L 1174.0 751.0 L 1173.0 747.0 L 1165.0 747.0 L 1164.0 743.0 L 1156.0 743.0 L 1155.0 739.0 L 1137.0 739.0 L 1136.0 735.0 L 1092.0 735.0 L 1091.0 739.0 L 1078.0 739.0 L 1077.0 743.0 L 1065.0 743.0 L 1064.0 747.0 L 1056.0 747.0 L 1056.0 750.0 L 1051.0 751.0 L 1050.0 754.0 L 1042.0 754.0 L 1042.0 757.0 L 1037.0 758.0 L 1036.0 762.0 L 1028.0 762.0 L 1028.0 765.0 L 1024.0 766.0 L 1023.0 770.0 L 1019.0 770.0 L 1019.0 773.0 L 1015.0 774.0 L 1014.0 778.0 L 1010.0 778.0 L 1009.0 782.0 L 1001.0 785.0 L 1000.0 778.0 L 996.0 778.0 L 995.0 770.0 L 991.0 769.0 L 991.0 762.0 L 987.0 762.0 L 986.0 758.0 L 982.0 757.0 L 982.0 751.0 L 974.0 751.0 L 973.0 747.0 L 968.0 746.0 L 968.0 743.0 L 960.0 743.0 L 959.0 739.0 L 942.0 739.0 L 941.0 735.0 L 901.0 735.0 L 900.0 739.0 L 883.0 739.0 L 882.0 743.0 L 874.0 743.0 L 873.0 747.0 L 865.0 747.0 L 864.0 751.0 L 856.0 751.0 L 855.0 754.0 L 851.0 754.0 L 850.0 758.0 L 842.0 758.0 L 841.0 762.0 L 837.0 762.0 L 837.0 765.0 L 833.0 766.0 L 832.0 770.0 L 828.0 770.0 L 828.0 773.0 L 824.0 774.0 L 823.0 778.0 L 819.0 778.0 L 819.0 781.0 L 815.0 782.0 L 814.0 739.0 Z" fill="#fff" fill-rule="evenodd"/>
<path d="M 433.0 758.0 L 433.0 761.0 L 428.0 762.0 L 428.0 765.0 L 424.0 766.0 L 423.0 770.0 L 419.0 770.0 L 419.0 773.0 L 415.0 774.0 L 414.0 778.0 L 410.0 778.0 L 410.0 784.0 L 406.0 785.0 L 405.0 789.0 L 401.0 789.0 L 401.0 796.0 L 396.0 797.0 L 396.0 804.0 L 392.0 805.0 L 392.0 812.0 L 387.0 813.0 L 387.0 823.0 L 383.0 824.0 L 383.0 846.0 L 378.0 847.0 L 378.0 874.0 L 383.0 875.0 L 383.0 897.0 L 387.0 898.0 L 387.0 908.0 L 392.0 909.0 L 392.0 916.0 L 396.0 917.0 L 396.0 924.0 L 401.0 925.0 L 401.0 932.0 L 405.0 932.0 L 406.0 936.0 L 410.0 937.0 L 410.0 943.0 L 414.0 943.0 L 415.0 947.0 L 419.0 948.0 L 419.0 951.0 L 423.0 951.0 L 424.0 955.0 L 428.0 956.0 L 428.0 959.0 L 433.0 960.0 L 433.0 963.0 L 441.0 963.0 L 442.0 967.0 L 445.0 967.0 L 446.0 970.0 L 455.0 970.0 L 456.0 974.0 L 464.0 974.0 L 465.0 978.0 L 477.0 978.0 L 478.0 982.0 L 495.0 982.0 L 496.0 986.0 L 550.0 986.0 L 551.0 982.0 L 568.0 982.0 L 569.0 978.0 L 582.0 978.0 L 583.0 974.0 L 591.0 974.0 L 592.0 970.0 L 600.0 970.0 L 601.0 967.0 L 605.0 967.0 L 606.0 963.0 L 614.0 963.0 L 614.0 960.0 L 618.0 959.0 L 619.0 955.0 L 623.0 955.0 L 623.0 952.0 L 627.0 951.0 L 628.0 947.0 L 632.0 947.0 L 632.0 944.0 L 636.0 943.0 L 636.0 937.0 L 641.0 936.0 L 641.0 933.0 L 645.0 932.0 L 646.0 924.0 L 650.0 924.0 L 650.0 917.0 L 655.0 916.0 L 655.0 909.0 L 659.0 908.0 L 659.0 898.0 L 664.0 897.0 L 664.0 875.0 L 668.0 874.0 L 668.0 847.0 L 664.0 846.0 L 664.0 824.0 L 659.0 823.0 L 659.0 813.0 L 655.0 812.0 L 655.0 805.0 L 650.0 804.0 L 650.0 797.0 L 645.0 796.0 L 645.0 789.0 L 642.0 789.0 L 641.0 785.0 L 636.0 784.0 L 636.0 778.0 L 633.0 778.0 L 632.0 774.0 L 628.0 774.0 L 627.0 770.0 L 623.0 769.0 L 623.0 766.0 L 619.0 766.0 L 618.0 762.0 L 614.0 761.0 L 614.0 758.0 L 606.0 758.0 L 605.0 754.0 L 601.0 754.0 L 600.0 751.0 L 592.0 751.0 L 591.0 747.0 L 583.0 747.0 L 582.0 743.0 L 569.0 743.0 L 568.0 739.0 L 551.0 739.0 L 550.0 735.0 L 496.0 735.0 L 495.0 739.0 L 478.0 739.0 L 477.0 743.0 L 465.0 743.0 L 464.0 747.0 L 456.0 747.0 L 455.0 751.0 L 446.0 751.0 L 445.0 754.0 L 442.0 754.0 L 441.0 758.0 Z M 446.0 784.0 L 450.0 784.0 L 451.0 781.0 L 459.0 781.0 L 459.0 778.0 L 464.0 777.0 L 465.0 773.0 L 473.0 773.0 L 474.0 769.0 L 482.0 769.0 L 483.0 765.0 L 495.0 765.0 L 496.0 761.0 L 550.0 761.0 L 551.0 765.0 L 564.0 765.0 L 565.0 769.0 L 573.0 769.0 L 574.0 773.0 L 582.0 773.0 L 583.0 777.0 L 587.0 778.0 L 587.0 781.0 L 595.0 781.0 L 596.0 784.0 L 601.0 785.0 L 601.0 788.0 L 605.0 788.0 L 606.0 796.0 L 609.0 796.0 L 610.0 800.0 L 614.0 800.0 L 615.0 804.0 L 619.0 805.0 L 619.0 812.0 L 624.0 813.0 L 624.0 823.0 L 628.0 824.0 L 628.0 835.0 L 633.0 836.0 L 633.0 885.0 L 628.0 886.0 L 628.0 897.0 L 624.0 898.0 L 624.0 908.0 L 619.0 909.0 L 619.0 916.0 L 615.0 917.0 L 614.0 921.0 L 610.0 921.0 L 610.0 928.0 L 606.0 929.0 L 606.0 932.0 L 601.0 933.0 L 601.0 936.0 L 596.0 937.0 L 595.0 940.0 L 587.0 940.0 L 587.0 943.0 L 583.0 944.0 L 582.0 948.0 L 574.0 948.0 L 573.0 952.0 L 565.0 952.0 L 564.0 956.0 L 551.0 956.0 L 550.0 960.0 L 496.0 960.0 L 495.0 956.0 L 483.0 956.0 L 482.0 952.0 L 474.0 952.0 L 473.0 948.0 L 465.0 948.0 L 464.0 944.0 L 459.0 943.0 L 459.0 940.0 L 451.0 940.0 L 450.0 937.0 L 446.0 937.0 L 445.0 933.0 L 441.0 932.0 L 441.0 929.0 L 436.0 928.0 L 436.0 921.0 L 433.0 921.0 L 432.0 917.0 L 427.0 916.0 L 427.0 909.0 L 423.0 908.0 L 423.0 898.0 L 418.0 897.0 L 418.0 886.0 L 414.0 885.0 L 414.0 836.0 L 418.0 835.0 L 418.0 824.0 L 423.0 823.0 L 423.0 813.0 L 427.0 812.0 L 427.0 805.0 L 432.0 804.0 L 432.0 801.0 L 436.0 800.0 L 437.0 796.0 L 441.0 796.0 L 441.0 789.0 L 445.0 788.0 Z" fill="#fff" fill-rule="evenodd"/>
<path d="M 110.0 770.0 L 110.0 777.0 L 106.0 778.0 L 106.0 781.0 L 101.0 782.0 L 100.0 785.0 L 96.0 785.0 L 96.0 792.0 L 92.0 793.0 L 91.0 797.0 L 87.0 797.0 L 87.0 804.0 L 83.0 805.0 L 83.0 815.0 L 78.0 816.0 L 78.0 827.0 L 74.0 828.0 L 74.0 843.0 L 69.0 844.0 L 69.0 881.0 L 74.0 882.0 L 74.0 897.0 L 78.0 898.0 L 78.0 908.0 L 83.0 909.0 L 83.0 916.0 L 87.0 917.0 L 87.0 924.0 L 92.0 925.0 L 92.0 932.0 L 95.0 932.0 L 96.0 936.0 L 100.0 936.0 L 101.0 939.0 L 106.0 940.0 L 106.0 947.0 L 109.0 947.0 L 110.0 951.0 L 114.0 951.0 L 115.0 955.0 L 123.0 955.0 L 124.0 959.0 L 128.0 960.0 L 128.0 963.0 L 133.0 964.0 L 133.0 967.0 L 150.0 970.0 L 151.0 974.0 L 159.0 974.0 L 160.0 978.0 L 173.0 978.0 L 174.0 982.0 L 191.0 982.0 L 192.0 986.0 L 241.0 986.0 L 242.0 982.0 L 264.0 982.0 L 265.0 978.0 L 277.0 978.0 L 278.0 974.0 L 286.0 974.0 L 287.0 970.0 L 305.0 967.0 L 305.0 964.0 L 309.0 963.0 L 309.0 940.0 L 314.0 939.0 L 314.0 933.0 L 310.0 933.0 L 309.0 937.0 L 301.0 937.0 L 300.0 940.0 L 296.0 940.0 L 295.0 944.0 L 287.0 944.0 L 286.0 948.0 L 278.0 948.0 L 277.0 952.0 L 265.0 952.0 L 264.0 956.0 L 251.0 956.0 L 250.0 960.0 L 196.0 960.0 L 195.0 956.0 L 178.0 956.0 L 177.0 952.0 L 169.0 952.0 L 168.0 948.0 L 160.0 948.0 L 159.0 944.0 L 151.0 944.0 L 150.0 940.0 L 146.0 940.0 L 145.0 937.0 L 137.0 937.0 L 136.0 933.0 L 132.0 932.0 L 132.0 925.0 L 128.0 925.0 L 127.0 921.0 L 123.0 920.0 L 123.0 917.0 L 118.0 916.0 L 118.0 909.0 L 114.0 908.0 L 114.0 902.0 L 109.0 901.0 L 109.0 886.0 L 105.0 885.0 L 105.0 840.0 L 109.0 839.0 L 109.0 824.0 L 114.0 823.0 L 114.0 816.0 L 118.0 815.0 L 119.0 808.0 L 123.0 808.0 L 123.0 801.0 L 127.0 800.0 L 128.0 796.0 L 132.0 796.0 L 132.0 793.0 L 136.0 792.0 L 137.0 788.0 L 141.0 788.0 L 141.0 785.0 L 145.0 784.0 L 146.0 781.0 L 150.0 781.0 L 151.0 777.0 L 155.0 777.0 L 156.0 773.0 L 164.0 773.0 L 165.0 769.0 L 173.0 769.0 L 174.0 765.0 L 186.0 765.0 L 187.0 761.0 L 232.0 761.0 L 233.0 765.0 L 245.0 765.0 L 246.0 769.0 L 259.0 769.0 L 260.0 773.0 L 264.0 773.0 L 265.0 777.0 L 269.0 778.0 L 269.0 781.0 L 273.0 781.0 L 274.0 784.0 L 278.0 785.0 L 278.0 792.0 L 274.0 793.0 L 273.0 797.0 L 269.0 797.0 L 269.0 804.0 L 265.0 805.0 L 265.0 819.0 L 269.0 820.0 L 269.0 827.0 L 277.0 827.0 L 278.0 831.0 L 300.0 831.0 L 300.0 828.0 L 305.0 827.0 L 305.0 824.0 L 309.0 823.0 L 310.0 819.0 L 314.0 819.0 L 314.0 813.0 L 318.0 812.0 L 318.0 793.0 L 314.0 792.0 L 314.0 782.0 L 309.0 781.0 L 309.0 774.0 L 306.0 774.0 L 305.0 770.0 L 301.0 770.0 L 300.0 766.0 L 296.0 766.0 L 295.0 762.0 L 291.0 761.0 L 291.0 758.0 L 286.0 757.0 L 286.0 754.0 L 278.0 754.0 L 277.0 751.0 L 273.0 750.0 L 273.0 747.0 L 265.0 747.0 L 264.0 743.0 L 251.0 743.0 L 250.0 739.0 L 233.0 739.0 L 232.0 735.0 L 187.0 735.0 L 186.0 739.0 L 169.0 739.0 L 168.0 743.0 L 156.0 743.0 L 156.0 746.0 L 151.0 747.0 L 150.0 751.0 L 133.0 754.0 L 133.0 757.0 L 128.0 758.0 L 128.0 761.0 L 124.0 762.0 L 123.0 766.0 L 119.0 766.0 L 118.0 770.0 Z" fill="#fff" fill-rule="evenodd"/>
<path d="M 1111.0 180.0 L 1100.0 180.0 L 1099.0 175.0 L 1089.0 175.0 L 1088.0 170.0 L 1082.0 169.0 L 1082.0 165.0 L 1066.0 165.0 L 1065.0 161.0 L 1043.0 161.0 L 1042.0 156.0 L 986.0 156.0 L 985.0 161.0 L 963.0 161.0 L 962.0 165.0 L 952.0 165.0 L 951.0 170.0 L 941.0 170.0 L 940.0 175.0 L 929.0 175.0 L 929.0 179.0 L 924.0 180.0 L 923.0 185.0 L 918.0 185.0 L 917.0 190.0 L 906.0 190.0 L 906.0 194.0 L 901.0 195.0 L 900.0 161.0 L 758.0 161.0 L 758.0 228.0 L 815.0 229.0 L 815.0 553.0 L 758.0 554.0 L 758.0 621.0 L 968.0 621.0 L 968.0 554.0 L 905.0 553.0 L 905.0 457.0 L 911.0 456.0 L 912.0 461.0 L 917.0 461.0 L 918.0 466.0 L 928.0 466.0 L 929.0 471.0 L 940.0 471.0 L 941.0 475.0 L 957.0 475.0 L 958.0 480.0 L 974.0 480.0 L 975.0 485.0 L 1037.0 485.0 L 1038.0 480.0 L 1059.0 480.0 L 1060.0 475.0 L 1076.0 475.0 L 1077.0 471.0 L 1082.0 471.0 L 1083.0 466.0 L 1094.0 466.0 L 1095.0 461.0 L 1105.0 461.0 L 1105.0 457.0 L 1111.0 456.0 L 1111.0 452.0 L 1116.0 451.0 L 1117.0 446.0 L 1122.0 446.0 L 1123.0 441.0 L 1128.0 441.0 L 1129.0 437.0 L 1133.0 437.0 L 1134.0 432.0 L 1139.0 432.0 L 1139.0 423.0 L 1145.0 422.0 L 1146.0 417.0 L 1151.0 417.0 L 1151.0 408.0 L 1156.0 407.0 L 1156.0 399.0 L 1162.0 398.0 L 1163.0 388.0 L 1168.0 388.0 L 1168.0 370.0 L 1173.0 369.0 L 1173.0 350.0 L 1179.0 349.0 L 1179.0 292.0 L 1173.0 291.0 L 1173.0 267.0 L 1168.0 266.0 L 1168.0 248.0 L 1163.0 248.0 L 1162.0 238.0 L 1156.0 237.0 L 1156.0 229.0 L 1151.0 228.0 L 1151.0 219.0 L 1146.0 219.0 L 1145.0 214.0 L 1140.0 214.0 L 1139.0 204.0 L 1134.0 204.0 L 1133.0 199.0 L 1129.0 199.0 L 1128.0 195.0 L 1123.0 195.0 L 1122.0 190.0 L 1117.0 190.0 L 1116.0 185.0 L 1111.0 184.0 Z M 935.0 232.0 L 945.0 232.0 L 946.0 228.0 L 962.0 228.0 L 963.0 223.0 L 1019.0 223.0 L 1020.0 228.0 L 1037.0 228.0 L 1038.0 232.0 L 1043.0 233.0 L 1043.0 237.0 L 1054.0 237.0 L 1055.0 242.0 L 1060.0 243.0 L 1060.0 247.0 L 1066.0 248.0 L 1066.0 257.0 L 1072.0 258.0 L 1072.0 266.0 L 1077.0 267.0 L 1077.0 276.0 L 1083.0 277.0 L 1083.0 291.0 L 1089.0 292.0 L 1089.0 344.0 L 1083.0 345.0 L 1083.0 364.0 L 1077.0 365.0 L 1077.0 373.0 L 1072.0 374.0 L 1072.0 383.0 L 1066.0 384.0 L 1066.0 388.0 L 1060.0 389.0 L 1060.0 393.0 L 1055.0 394.0 L 1055.0 398.0 L 1049.0 399.0 L 1049.0 403.0 L 1043.0 404.0 L 1042.0 408.0 L 1032.0 408.0 L 1031.0 413.0 L 1020.0 413.0 L 1019.0 418.0 L 958.0 418.0 L 957.0 413.0 L 941.0 413.0 L 940.0 408.0 L 929.0 408.0 L 928.0 404.0 L 918.0 404.0 L 917.0 399.0 L 905.0 398.0 L 905.0 253.0 L 911.0 252.0 L 912.0 247.0 L 917.0 247.0 L 918.0 242.0 L 928.0 242.0 L 928.0 238.0 L 934.0 237.0 Z" fill="#fff" fill-rule="evenodd"/>
<path d="M 655.0 199.0 L 650.0 199.0 L 649.0 195.0 L 644.0 195.0 L 643.0 190.0 L 638.0 189.0 L 638.0 185.0 L 632.0 184.0 L 632.0 180.0 L 622.0 180.0 L 621.0 175.0 L 610.0 175.0 L 609.0 170.0 L 603.0 169.0 L 603.0 165.0 L 587.0 165.0 L 586.0 161.0 L 565.0 161.0 L 564.0 156.0 L 508.0 156.0 L 507.0 161.0 L 485.0 161.0 L 484.0 165.0 L 473.0 165.0 L 472.0 170.0 L 462.0 170.0 L 461.0 175.0 L 451.0 175.0 L 450.0 180.0 L 445.0 180.0 L 445.0 184.0 L 439.0 185.0 L 438.0 190.0 L 428.0 190.0 L 427.0 195.0 L 421.0 194.0 L 421.0 161.0 L 280.0 161.0 L 280.0 228.0 L 337.0 229.0 L 337.0 553.0 L 280.0 554.0 L 280.0 621.0 L 489.0 621.0 L 489.0 554.0 L 427.0 553.0 L 427.0 457.0 L 433.0 456.0 L 434.0 461.0 L 439.0 462.0 L 439.0 466.0 L 450.0 466.0 L 451.0 471.0 L 461.0 471.0 L 462.0 475.0 L 478.0 475.0 L 479.0 480.0 L 495.0 480.0 L 496.0 485.0 L 558.0 485.0 L 559.0 480.0 L 581.0 480.0 L 582.0 475.0 L 598.0 475.0 L 599.0 471.0 L 603.0 471.0 L 604.0 466.0 L 615.0 466.0 L 616.0 461.0 L 626.0 461.0 L 626.0 457.0 L 632.0 456.0 L 633.0 451.0 L 638.0 451.0 L 638.0 447.0 L 643.0 446.0 L 644.0 441.0 L 649.0 441.0 L 650.0 437.0 L 655.0 437.0 L 656.0 432.0 L 660.0 432.0 L 660.0 423.0 L 666.0 422.0 L 667.0 417.0 L 672.0 417.0 L 672.0 408.0 L 678.0 407.0 L 678.0 399.0 L 683.0 398.0 L 683.0 389.0 L 689.0 388.0 L 689.0 370.0 L 695.0 369.0 L 695.0 350.0 L 700.0 349.0 L 700.0 292.0 L 695.0 291.0 L 695.0 267.0 L 689.0 266.0 L 689.0 248.0 L 683.0 247.0 L 683.0 238.0 L 678.0 237.0 L 678.0 229.0 L 672.0 228.0 L 672.0 219.0 L 667.0 219.0 L 666.0 214.0 L 660.0 213.0 L 660.0 204.0 L 656.0 204.0 Z M 456.0 232.0 L 467.0 232.0 L 468.0 228.0 L 484.0 228.0 L 485.0 223.0 L 541.0 223.0 L 542.0 228.0 L 558.0 228.0 L 559.0 232.0 L 565.0 233.0 L 565.0 237.0 L 575.0 237.0 L 576.0 242.0 L 581.0 242.0 L 582.0 247.0 L 587.0 248.0 L 587.0 257.0 L 593.0 258.0 L 593.0 266.0 L 599.0 267.0 L 599.0 276.0 L 604.0 277.0 L 604.0 291.0 L 610.0 292.0 L 610.0 344.0 L 604.0 345.0 L 604.0 364.0 L 599.0 365.0 L 598.0 374.0 L 593.0 374.0 L 593.0 383.0 L 587.0 384.0 L 587.0 388.0 L 582.0 389.0 L 581.0 394.0 L 576.0 394.0 L 575.0 399.0 L 570.0 399.0 L 570.0 403.0 L 565.0 404.0 L 564.0 408.0 L 553.0 408.0 L 552.0 413.0 L 542.0 413.0 L 541.0 418.0 L 479.0 418.0 L 478.0 413.0 L 462.0 413.0 L 461.0 408.0 L 451.0 408.0 L 450.0 404.0 L 439.0 404.0 L 438.0 399.0 L 427.0 398.0 L 427.0 253.0 L 433.0 252.0 L 433.0 248.0 L 438.0 247.0 L 439.0 242.0 L 450.0 242.0 L 450.0 238.0 L 455.0 237.0 Z" fill="#fff" fill-rule="evenodd"/>
<path d="M 0.0 0.0 L 0.0 72.0 L 69.0 73.0 L 69.0 407.0 L 0.0 408.0 L 0.0 480.0 L 227.0 480.0 L 227.0 408.0 L 159.0 407.0 L 159.0 73.0 L 227.0 72.0 L 227.0 0.0 Z" fill="#fff" fill-rule="evenodd"/>
</svg>